<?xml version="1.0" encoding="utf-8"?>
<!-- Generator: Adobe Illustrator 25.4.1, SVG Export Plug-In . SVG Version: 6.00 Build 0)  -->
<svg version="1.1" xmlns="http://www.w3.org/2000/svg" xmlns:xlink="http://www.w3.org/1999/xlink" x="0px" y="0px"
	 viewBox="0 0 849.88 309.18" style="enable-background:new 0 0 849.88 309.18;" xml:space="preserve">
<style type="text/css">
	.st0{display:none;}
	.st1{display:inline;}
	.st2{fill:none;stroke:#9C9B9B;stroke-width:0.5038;stroke-miterlimit:10;}
	.st3{fill:#01002C;}
	.st4{fill:url(#SVGID_1_);}
	.st5{fill:url(#SVGID_00000045590187087647121780000002970968382196455337_);}
	.st6{fill:url(#SVGID_00000104708493380560240910000011885618213840618928_);}
	.st7{fill:url(#SVGID_00000034770003926031667080000012218705074529807499_);}
	.st8{fill:url(#SVGID_00000093892564959114842390000014789178182840256444_);}
	.st9{fill:url(#SVGID_00000129888098785389612340000003821014870058958499_);}
</style>
<g id="Capa_2" class="st0">
	<g class="st1">
		<polyline class="st2" points="159.32,379.76 140.63,347.39 159.32,315.02 140.63,282.65 159.32,250.28 140.63,217.92 
			159.32,185.55 140.63,153.18 159.32,120.81 140.63,88.44 159.32,56.07 140.63,23.7 159.32,-8.67 140.63,-41.04 159.32,-73.41 		
			"/>
		<polyline class="st2" points="-64.94,379.76 -83.63,347.39 -64.94,315.02 -83.63,282.65 -64.94,250.28 -83.63,217.92 
			-64.94,185.55 -83.63,153.18 -64.94,120.81 -83.63,88.44 -64.94,56.07 -83.63,23.7 -64.94,-8.67 -83.63,-41.04 -64.94,-73.41 		
			"/>
		<polyline class="st2" points="47.19,379.76 28.5,347.39 47.19,315.02 28.5,282.65 47.19,250.28 28.5,217.92 47.19,185.55 
			28.5,153.18 47.19,120.81 28.5,88.44 47.19,56.07 28.5,23.7 47.19,-8.67 28.5,-41.04 47.19,-73.41 		"/>
		<polyline class="st2" points="-177.07,379.76 -195.76,347.39 -177.07,315.02 -195.76,282.65 -177.07,250.28 -195.76,217.92 
			-177.07,185.55 -195.76,153.18 -177.07,120.81 -195.76,88.44 -177.07,56.07 -195.76,23.7 -177.07,-8.67 -195.76,-41.04 
			-177.07,-73.41 		"/>
		<polyline class="st2" points="121.94,379.76 103.26,347.39 121.94,315.02 103.26,282.65 121.94,250.28 103.26,217.92 
			121.94,185.55 103.26,153.18 121.94,120.81 103.26,88.44 121.94,56.07 103.26,23.7 121.94,-8.67 103.26,-41.04 121.94,-73.41 		
			"/>
		<polyline class="st2" points="-102.32,379.76 -121.01,347.39 -102.32,315.02 -121.01,282.65 -102.32,250.28 -121.01,217.92 
			-102.32,185.55 -121.01,153.18 -102.32,120.81 -121.01,88.44 -102.32,56.07 -121.01,23.7 -102.32,-8.67 -121.01,-41.04 
			-102.32,-73.41 		"/>
		<polyline class="st2" points="9.81,379.76 -8.88,347.39 9.81,315.02 -8.88,282.65 9.81,250.28 -8.88,217.92 9.81,185.55 
			-8.88,153.18 9.81,120.81 -8.88,88.44 9.81,56.07 -8.88,23.7 9.81,-8.67 -8.88,-41.04 9.81,-73.41 		"/>
		<polyline class="st2" points="-214.45,379.76 -233.14,347.39 -214.45,315.02 -233.14,282.65 -214.45,250.28 -233.14,217.92 
			-214.45,185.55 -233.14,153.18 -214.45,120.81 -233.14,88.44 -214.45,56.07 -233.14,23.7 -214.45,-8.67 -233.14,-41.04 
			-214.45,-73.41 		"/>
		<polyline class="st2" points="84.57,379.76 65.88,347.39 84.57,315.02 65.88,282.65 84.57,250.28 65.88,217.92 84.57,185.55 
			65.88,153.18 84.57,120.81 65.88,88.44 84.57,56.07 65.88,23.7 84.57,-8.67 65.88,-41.04 84.57,-73.41 		"/>
		<polyline class="st2" points="-139.7,379.76 -158.38,347.39 -139.7,315.02 -158.38,282.65 -139.7,250.28 -158.38,217.92 
			-139.7,185.55 -158.38,153.18 -139.7,120.81 -158.38,88.44 -139.7,56.07 -158.38,23.7 -139.7,-8.67 -158.38,-41.04 -139.7,-73.41 
					"/>
		<polyline class="st2" points="-27.56,379.76 -46.25,347.39 -27.56,315.02 -46.25,282.65 -27.56,250.28 -46.25,217.92 
			-27.56,185.55 -46.25,153.18 -27.56,120.81 -46.25,88.44 -27.56,56.07 -46.25,23.7 -27.56,-8.67 -46.25,-41.04 -27.56,-73.41 		
			"/>
		<polyline class="st2" points="-251.83,379.76 -270.51,347.39 -251.83,315.02 -270.51,282.65 -251.83,250.28 -270.51,217.92 
			-251.83,185.55 -270.51,153.18 -251.83,120.81 -270.51,88.44 -251.83,56.07 -270.51,23.7 -251.83,-8.67 -270.51,-41.04 
			-251.83,-73.41 		"/>
		<polyline class="st2" points="121.94,-73.41 140.63,-41.04 121.94,-8.67 140.63,23.7 121.94,56.07 140.63,88.44 121.94,120.81 
			140.63,153.18 121.94,185.55 140.63,217.92 121.94,250.28 140.63,282.65 121.94,315.02 140.63,347.39 121.94,379.76 		"/>
		<polyline class="st2" points="-102.32,-73.41 -83.63,-41.04 -102.32,-8.67 -83.63,23.7 -102.32,56.07 -83.63,88.44 
			-102.32,120.81 -83.63,153.18 -102.32,185.55 -83.63,217.92 -102.32,250.28 -83.63,282.65 -102.32,315.02 -83.63,347.39 
			-102.32,379.76 		"/>
		<polyline class="st2" points="9.81,-73.41 28.5,-41.04 9.81,-8.67 28.5,23.7 9.81,56.07 28.5,88.44 9.81,120.81 28.5,153.18 
			9.81,185.55 28.5,217.92 9.81,250.28 28.5,282.65 9.81,315.02 28.5,347.39 9.81,379.76 		"/>
		<polyline class="st2" points="-214.45,-73.41 -195.76,-41.04 -214.45,-8.67 -195.76,23.7 -214.45,56.07 -195.76,88.44 
			-214.45,120.81 -195.76,153.18 -214.45,185.55 -195.76,217.92 -214.45,250.28 -195.76,282.65 -214.45,315.02 -195.76,347.39 
			-214.45,379.76 		"/>
		<polyline class="st2" points="84.57,-73.41 103.26,-41.04 84.57,-8.67 103.26,23.7 84.57,56.07 103.26,88.44 84.57,120.81 
			103.26,153.18 84.57,185.55 103.26,217.92 84.57,250.28 103.26,282.65 84.57,315.02 103.26,347.39 84.57,379.76 		"/>
		<polyline class="st2" points="-139.7,-73.41 -121.01,-41.04 -139.7,-8.67 -121.01,23.7 -139.7,56.07 -121.01,88.44 -139.7,120.81 
			-121.01,153.18 -139.7,185.55 -121.01,217.92 -139.7,250.28 -121.01,282.65 -139.7,315.02 -121.01,347.39 -139.7,379.76 		"/>
		<polyline class="st2" points="-27.56,-73.41 -8.88,-41.04 -27.56,-8.67 -8.88,23.7 -27.56,56.07 -8.88,88.44 -27.56,120.81 
			-8.88,153.18 -27.56,185.55 -8.88,217.92 -27.56,250.28 -8.88,282.65 -27.56,315.02 -8.88,347.39 -27.56,379.76 		"/>
		<polyline class="st2" points="-251.83,-73.41 -233.14,-41.04 -251.83,-8.67 -233.14,23.7 -251.83,56.07 -233.14,88.44 
			-251.83,120.81 -233.14,153.18 -251.83,185.55 -233.14,217.92 -251.83,250.28 -233.14,282.65 -251.83,315.02 -233.14,347.39 
			-251.83,379.76 		"/>
		<polyline class="st2" points="47.19,-73.41 65.88,-41.04 47.19,-8.67 65.88,23.7 47.19,56.07 65.88,88.44 47.19,120.81 
			65.88,153.18 47.19,185.55 65.88,217.92 47.19,250.28 65.88,282.65 47.19,315.02 65.88,347.39 47.19,379.76 		"/>
		<polyline class="st2" points="-177.07,-73.41 -158.38,-41.04 -177.07,-8.67 -158.38,23.7 -177.07,56.07 -158.38,88.44 
			-177.07,120.81 -158.38,153.18 -177.07,185.55 -158.38,217.92 -177.07,250.28 -158.38,282.65 -177.07,315.02 -158.38,347.39 
			-177.07,379.76 		"/>
		<polyline class="st2" points="-64.94,-73.41 -46.25,-41.04 -64.94,-8.67 -46.25,23.7 -64.94,56.07 -46.25,88.44 -64.94,120.81 
			-46.25,153.18 -64.94,185.55 -46.25,217.92 -64.94,250.28 -46.25,282.65 -64.94,315.02 -46.25,347.39 -64.94,379.76 		"/>
		<polyline class="st2" points="-289.2,-73.41 -270.51,-41.04 -289.2,-8.67 -270.51,23.7 -289.2,56.07 -270.51,88.44 -289.2,120.81 
			-270.51,153.18 -289.2,185.55 -270.51,217.92 -289.2,250.28 -270.51,282.65 -289.2,315.02 -270.51,347.39 -289.2,379.76 		"/>
		<g>
			<rect x="-289.2" y="-73.41" class="st2" width="448.52" height="453.17"/>
		</g>
		<g>
			<line class="st2" x1="159.32" y1="-41.04" x2="-289.2" y2="-41.04"/>
			<line class="st2" x1="159.32" y1="-8.67" x2="-289.2" y2="-8.67"/>
			<line class="st2" x1="159.32" y1="23.7" x2="-289.2" y2="23.7"/>
			<line class="st2" x1="159.32" y1="56.07" x2="-289.2" y2="56.07"/>
			<line class="st2" x1="159.32" y1="88.44" x2="-289.2" y2="88.44"/>
			<line class="st2" x1="159.32" y1="120.81" x2="-289.2" y2="120.81"/>
			<line class="st2" x1="159.32" y1="153.18" x2="-289.2" y2="153.18"/>
			<line class="st2" x1="159.32" y1="185.54" x2="-289.2" y2="185.54"/>
			<line class="st2" x1="159.32" y1="217.91" x2="-289.2" y2="217.91"/>
			<line class="st2" x1="159.32" y1="250.28" x2="-289.2" y2="250.28"/>
			<line class="st2" x1="159.32" y1="282.65" x2="-289.2" y2="282.65"/>
			<line class="st2" x1="159.32" y1="315.02" x2="-289.2" y2="315.02"/>
			<line class="st2" x1="159.32" y1="347.39" x2="-289.2" y2="347.39"/>
		</g>
	</g>
	<g class="st1">
		<polyline class="st2" points="607.85,379.76 589.16,347.39 607.85,315.02 589.16,282.65 607.85,250.28 589.16,217.92 
			607.85,185.55 589.16,153.18 607.85,120.81 589.16,88.44 607.85,56.07 589.16,23.7 607.85,-8.67 589.16,-41.04 607.85,-73.41 		
			"/>
		<polyline class="st2" points="383.58,379.76 364.89,347.39 383.58,315.02 364.89,282.65 383.58,250.28 364.89,217.92 
			383.58,185.55 364.89,153.18 383.58,120.81 364.89,88.44 383.58,56.07 364.89,23.7 383.58,-8.67 364.89,-41.04 383.58,-73.41 		
			"/>
		<polyline class="st2" points="495.71,379.76 477.03,347.39 495.71,315.02 477.03,282.65 495.71,250.28 477.03,217.92 
			495.71,185.55 477.03,153.18 495.71,120.81 477.03,88.44 495.71,56.07 477.03,23.7 495.71,-8.67 477.03,-41.04 495.71,-73.41 		
			"/>
		<polyline class="st2" points="271.45,379.76 252.76,347.39 271.45,315.02 252.76,282.65 271.45,250.28 252.76,217.92 
			271.45,185.55 252.76,153.18 271.45,120.81 252.76,88.44 271.45,56.07 252.76,23.7 271.45,-8.67 252.76,-41.04 271.45,-73.41 		
			"/>
		<polyline class="st2" points="570.47,379.76 551.78,347.39 570.47,315.02 551.78,282.65 570.47,250.28 551.78,217.92 
			570.47,185.55 551.78,153.18 570.47,120.81 551.78,88.44 570.47,56.07 551.78,23.7 570.47,-8.67 551.78,-41.04 570.47,-73.41 		
			"/>
		<polyline class="st2" points="346.21,379.76 327.52,347.39 346.21,315.02 327.52,282.65 346.21,250.28 327.52,217.92 
			346.21,185.55 327.52,153.18 346.21,120.81 327.52,88.44 346.21,56.07 327.52,23.7 346.21,-8.67 327.52,-41.04 346.21,-73.41 		
			"/>
		<polyline class="st2" points="458.34,379.76 439.65,347.39 458.34,315.02 439.65,282.65 458.34,250.28 439.65,217.92 
			458.34,185.55 439.65,153.18 458.34,120.81 439.65,88.44 458.34,56.07 439.65,23.7 458.34,-8.67 439.65,-41.04 458.34,-73.41 		
			"/>
		<polyline class="st2" points="234.07,379.76 215.39,347.39 234.07,315.02 215.39,282.65 234.07,250.28 215.39,217.92 
			234.07,185.55 215.39,153.18 234.07,120.81 215.39,88.44 234.07,56.07 215.39,23.7 234.07,-8.67 215.39,-41.04 234.07,-73.41 		
			"/>
		<polyline class="st2" points="533.09,379.76 514.4,347.39 533.09,315.02 514.4,282.65 533.09,250.28 514.4,217.92 533.09,185.55 
			514.4,153.18 533.09,120.81 514.4,88.44 533.09,56.07 514.4,23.7 533.09,-8.67 514.4,-41.04 533.09,-73.41 		"/>
		<polyline class="st2" points="308.83,379.76 290.14,347.39 308.83,315.02 290.14,282.65 308.83,250.28 290.14,217.92 
			308.83,185.55 290.14,153.18 308.83,120.81 290.14,88.44 308.83,56.07 290.14,23.7 308.83,-8.67 290.14,-41.04 308.83,-73.41 		
			"/>
		<polyline class="st2" points="420.96,379.76 402.27,347.39 420.96,315.02 402.27,282.65 420.96,250.28 402.27,217.92 
			420.96,185.55 402.27,153.18 420.96,120.81 402.27,88.44 420.96,56.07 402.27,23.7 420.96,-8.67 402.27,-41.04 420.96,-73.41 		
			"/>
		<polyline class="st2" points="196.7,379.76 178.01,347.39 196.7,315.02 178.01,282.65 196.7,250.28 178.01,217.92 196.7,185.55 
			178.01,153.18 196.7,120.81 178.01,88.44 196.7,56.07 178.01,23.7 196.7,-8.67 178.01,-41.04 196.7,-73.41 		"/>
		<polyline class="st2" points="570.47,-73.41 589.16,-41.04 570.47,-8.67 589.16,23.7 570.47,56.07 589.16,88.44 570.47,120.81 
			589.16,153.18 570.47,185.55 589.16,217.92 570.47,250.28 589.16,282.65 570.47,315.02 589.16,347.39 570.47,379.76 		"/>
		<polyline class="st2" points="346.21,-73.41 364.89,-41.04 346.21,-8.67 364.89,23.7 346.21,56.07 364.89,88.44 346.21,120.81 
			364.89,153.18 346.21,185.55 364.89,217.92 346.21,250.28 364.89,282.65 346.21,315.02 364.89,347.39 346.21,379.76 		"/>
		<polyline class="st2" points="458.34,-73.41 477.03,-41.04 458.34,-8.67 477.03,23.7 458.34,56.07 477.03,88.44 458.34,120.81 
			477.03,153.18 458.34,185.55 477.03,217.92 458.34,250.28 477.03,282.65 458.34,315.02 477.03,347.39 458.34,379.76 		"/>
		<polyline class="st2" points="234.07,-73.41 252.76,-41.04 234.07,-8.67 252.76,23.7 234.07,56.07 252.76,88.44 234.07,120.81 
			252.76,153.18 234.07,185.55 252.76,217.92 234.07,250.28 252.76,282.65 234.07,315.02 252.76,347.39 234.07,379.76 		"/>
		<polyline class="st2" points="533.09,-73.41 551.78,-41.04 533.09,-8.67 551.78,23.7 533.09,56.07 551.78,88.44 533.09,120.81 
			551.78,153.18 533.09,185.55 551.78,217.92 533.09,250.28 551.78,282.65 533.09,315.02 551.78,347.39 533.09,379.76 		"/>
		<polyline class="st2" points="308.83,-73.41 327.52,-41.04 308.83,-8.67 327.52,23.7 308.83,56.07 327.52,88.44 308.83,120.81 
			327.52,153.18 308.83,185.55 327.52,217.92 308.83,250.28 327.52,282.65 308.83,315.02 327.52,347.39 308.83,379.76 		"/>
		<polyline class="st2" points="420.96,-73.41 439.65,-41.04 420.96,-8.67 439.65,23.7 420.96,56.07 439.65,88.44 420.96,120.81 
			439.65,153.18 420.96,185.55 439.65,217.92 420.96,250.28 439.65,282.65 420.96,315.02 439.65,347.39 420.96,379.76 		"/>
		<polyline class="st2" points="196.7,-73.41 215.39,-41.04 196.7,-8.67 215.39,23.7 196.7,56.07 215.39,88.44 196.7,120.81 
			215.39,153.18 196.7,185.55 215.39,217.92 196.7,250.28 215.39,282.65 196.7,315.02 215.39,347.39 196.7,379.76 		"/>
		<polyline class="st2" points="495.71,-73.41 514.4,-41.04 495.71,-8.67 514.4,23.7 495.71,56.07 514.4,88.44 495.71,120.81 
			514.4,153.18 495.71,185.55 514.4,217.92 495.71,250.28 514.4,282.65 495.71,315.02 514.4,347.39 495.71,379.76 		"/>
		<polyline class="st2" points="271.45,-73.41 290.14,-41.04 271.45,-8.67 290.14,23.7 271.45,56.07 290.14,88.44 271.45,120.81 
			290.14,153.18 271.45,185.55 290.14,217.92 271.45,250.28 290.14,282.65 271.45,315.02 290.14,347.39 271.45,379.76 		"/>
		<polyline class="st2" points="383.58,-73.41 402.27,-41.04 383.58,-8.67 402.27,23.7 383.58,56.07 402.27,88.44 383.58,120.81 
			402.27,153.18 383.58,185.55 402.27,217.92 383.58,250.28 402.27,282.65 383.58,315.02 402.27,347.39 383.58,379.76 		"/>
		<polyline class="st2" points="159.32,-73.41 178.01,-41.04 159.32,-8.67 178.01,23.7 159.32,56.07 178.01,88.44 159.32,120.81 
			178.01,153.18 159.32,185.55 178.01,217.92 159.32,250.28 178.01,282.65 159.32,315.02 178.01,347.39 159.32,379.76 		"/>
		<g>
			<rect x="159.32" y="-73.41" class="st2" width="448.52" height="453.17"/>
		</g>
		<g>
			<line class="st2" x1="607.85" y1="-41.04" x2="159.32" y2="-41.04"/>
			<line class="st2" x1="607.85" y1="-8.67" x2="159.32" y2="-8.67"/>
			<line class="st2" x1="607.85" y1="23.7" x2="159.32" y2="23.7"/>
			<line class="st2" x1="607.85" y1="56.07" x2="159.32" y2="56.07"/>
			<line class="st2" x1="607.85" y1="88.44" x2="159.32" y2="88.44"/>
			<line class="st2" x1="607.85" y1="120.81" x2="159.32" y2="120.81"/>
			<line class="st2" x1="607.85" y1="153.18" x2="159.32" y2="153.18"/>
			<line class="st2" x1="607.85" y1="185.54" x2="159.32" y2="185.54"/>
			<line class="st2" x1="607.85" y1="217.91" x2="159.32" y2="217.91"/>
			<line class="st2" x1="607.85" y1="250.28" x2="159.32" y2="250.28"/>
			<line class="st2" x1="607.85" y1="282.65" x2="159.32" y2="282.65"/>
			<line class="st2" x1="607.85" y1="315.02" x2="159.32" y2="315.02"/>
			<line class="st2" x1="607.85" y1="347.39" x2="159.32" y2="347.39"/>
		</g>
	</g>
	<g class="st1">
		<polyline class="st2" points="1056.37,379.76 1037.68,347.39 1056.37,315.02 1037.68,282.65 1056.37,250.28 1037.68,217.92 
			1056.37,185.55 1037.68,153.18 1056.37,120.81 1037.68,88.44 1056.37,56.07 1037.68,23.7 1056.37,-8.67 1037.68,-41.04 
			1056.37,-73.41 		"/>
		<polyline class="st2" points="832.11,379.76 813.42,347.39 832.11,315.02 813.42,282.65 832.11,250.28 813.42,217.92 
			832.11,185.55 813.42,153.18 832.11,120.81 813.42,88.44 832.11,56.07 813.42,23.7 832.11,-8.67 813.42,-41.04 832.11,-73.41 		
			"/>
		<polyline class="st2" points="944.24,379.76 925.55,347.39 944.24,315.02 925.55,282.65 944.24,250.28 925.55,217.92 
			944.24,185.55 925.55,153.18 944.24,120.81 925.55,88.44 944.24,56.07 925.55,23.7 944.24,-8.67 925.55,-41.04 944.24,-73.41 		
			"/>
		<polyline class="st2" points="719.98,379.76 701.29,347.39 719.98,315.02 701.29,282.65 719.98,250.28 701.29,217.92 
			719.98,185.55 701.29,153.18 719.98,120.81 701.29,88.44 719.98,56.07 701.29,23.7 719.98,-8.67 701.29,-41.04 719.98,-73.41 		
			"/>
		<polyline class="st2" points="1018.99,379.76 1000.3,347.39 1018.99,315.02 1000.3,282.65 1018.99,250.28 1000.3,217.92 
			1018.99,185.55 1000.3,153.18 1018.99,120.81 1000.3,88.44 1018.99,56.07 1000.3,23.7 1018.99,-8.67 1000.3,-41.04 
			1018.99,-73.41 		"/>
		<polyline class="st2" points="794.73,379.76 776.04,347.39 794.73,315.02 776.04,282.65 794.73,250.28 776.04,217.92 
			794.73,185.55 776.04,153.18 794.73,120.81 776.04,88.44 794.73,56.07 776.04,23.7 794.73,-8.67 776.04,-41.04 794.73,-73.41 		
			"/>
		<polyline class="st2" points="906.86,379.76 888.17,347.39 906.86,315.02 888.17,282.65 906.86,250.28 888.17,217.92 
			906.86,185.55 888.17,153.18 906.86,120.81 888.17,88.44 906.86,56.07 888.17,23.7 906.86,-8.67 888.17,-41.04 906.86,-73.41 		
			"/>
		<polyline class="st2" points="682.6,379.76 663.91,347.39 682.6,315.02 663.91,282.65 682.6,250.28 663.91,217.92 682.6,185.55 
			663.91,153.18 682.6,120.81 663.91,88.44 682.6,56.07 663.91,23.7 682.6,-8.67 663.91,-41.04 682.6,-73.41 		"/>
		<polyline class="st2" points="981.62,379.76 962.93,347.39 981.62,315.02 962.93,282.65 981.62,250.28 962.93,217.92 
			981.62,185.55 962.93,153.18 981.62,120.81 962.93,88.44 981.62,56.07 962.93,23.7 981.62,-8.67 962.93,-41.04 981.62,-73.41 		
			"/>
		<polyline class="st2" points="757.35,379.76 738.66,347.39 757.35,315.02 738.66,282.65 757.35,250.28 738.66,217.92 
			757.35,185.55 738.66,153.18 757.35,120.81 738.66,88.44 757.35,56.07 738.66,23.7 757.35,-8.67 738.66,-41.04 757.35,-73.41 		
			"/>
		<polyline class="st2" points="869.48,379.76 850.8,347.39 869.48,315.02 850.8,282.65 869.48,250.28 850.8,217.92 869.48,185.55 
			850.8,153.18 869.48,120.81 850.8,88.44 869.48,56.07 850.8,23.7 869.48,-8.67 850.8,-41.04 869.48,-73.41 		"/>
		<polyline class="st2" points="645.22,379.76 626.53,347.39 645.22,315.02 626.53,282.65 645.22,250.28 626.53,217.92 
			645.22,185.55 626.53,153.18 645.22,120.81 626.53,88.44 645.22,56.07 626.53,23.7 645.22,-8.67 626.53,-41.04 645.22,-73.41 		
			"/>
		<polyline class="st2" points="1018.99,-73.41 1037.68,-41.04 1018.99,-8.67 1037.68,23.7 1018.99,56.07 1037.68,88.44 
			1018.99,120.81 1037.68,153.18 1018.99,185.55 1037.68,217.92 1018.99,250.28 1037.68,282.65 1018.99,315.02 1037.68,347.39 
			1018.99,379.76 		"/>
		<polyline class="st2" points="794.73,-73.41 813.42,-41.04 794.73,-8.67 813.42,23.7 794.73,56.07 813.42,88.44 794.73,120.81 
			813.42,153.18 794.73,185.55 813.42,217.92 794.73,250.28 813.42,282.65 794.73,315.02 813.42,347.39 794.73,379.76 		"/>
		<polyline class="st2" points="906.86,-73.41 925.55,-41.04 906.86,-8.67 925.55,23.7 906.86,56.07 925.55,88.44 906.86,120.81 
			925.55,153.18 906.86,185.55 925.55,217.92 906.86,250.28 925.55,282.65 906.86,315.02 925.55,347.39 906.86,379.76 		"/>
		<polyline class="st2" points="682.6,-73.41 701.29,-41.04 682.6,-8.67 701.29,23.7 682.6,56.07 701.29,88.44 682.6,120.81 
			701.29,153.18 682.6,185.55 701.29,217.92 682.6,250.28 701.29,282.65 682.6,315.02 701.29,347.39 682.6,379.76 		"/>
		<polyline class="st2" points="981.62,-73.41 1000.3,-41.04 981.62,-8.67 1000.3,23.7 981.62,56.07 1000.3,88.44 981.62,120.81 
			1000.3,153.18 981.62,185.55 1000.3,217.92 981.62,250.28 1000.3,282.65 981.62,315.02 1000.3,347.39 981.62,379.76 		"/>
		<polyline class="st2" points="757.35,-73.41 776.04,-41.04 757.35,-8.67 776.04,23.7 757.35,56.07 776.04,88.44 757.35,120.81 
			776.04,153.18 757.35,185.55 776.04,217.92 757.35,250.28 776.04,282.65 757.35,315.02 776.04,347.39 757.35,379.76 		"/>
		<polyline class="st2" points="869.48,-73.41 888.17,-41.04 869.48,-8.67 888.17,23.7 869.48,56.07 888.17,88.44 869.48,120.81 
			888.17,153.18 869.48,185.55 888.17,217.92 869.48,250.28 888.17,282.65 869.48,315.02 888.17,347.39 869.48,379.76 		"/>
		<polyline class="st2" points="645.22,-73.41 663.91,-41.04 645.22,-8.67 663.91,23.7 645.22,56.07 663.91,88.44 645.22,120.81 
			663.91,153.18 645.22,185.55 663.91,217.92 645.22,250.28 663.91,282.65 645.22,315.02 663.91,347.39 645.22,379.76 		"/>
		<polyline class="st2" points="944.24,-73.41 962.93,-41.04 944.24,-8.67 962.93,23.7 944.24,56.07 962.93,88.44 944.24,120.81 
			962.93,153.18 944.24,185.55 962.93,217.92 944.24,250.28 962.93,282.65 944.24,315.02 962.93,347.39 944.24,379.76 		"/>
		<polyline class="st2" points="719.98,-73.41 738.66,-41.04 719.98,-8.67 738.66,23.7 719.98,56.07 738.66,88.44 719.98,120.81 
			738.66,153.18 719.98,185.55 738.66,217.92 719.98,250.28 738.66,282.65 719.98,315.02 738.66,347.39 719.98,379.76 		"/>
		<polyline class="st2" points="832.11,-73.41 850.8,-41.04 832.11,-8.67 850.8,23.7 832.11,56.07 850.8,88.44 832.11,120.81 
			850.8,153.18 832.11,185.55 850.8,217.92 832.11,250.28 850.8,282.65 832.11,315.02 850.8,347.39 832.11,379.76 		"/>
		<polyline class="st2" points="607.85,-73.41 626.53,-41.04 607.85,-8.67 626.53,23.7 607.85,56.07 626.53,88.44 607.85,120.81 
			626.53,153.18 607.85,185.55 626.53,217.92 607.85,250.28 626.53,282.65 607.85,315.02 626.53,347.39 607.85,379.76 		"/>
		<g>
			<rect x="607.85" y="-73.41" class="st2" width="448.52" height="453.17"/>
		</g>
		<g>
			<line class="st2" x1="1056.37" y1="-41.04" x2="607.85" y2="-41.04"/>
			<line class="st2" x1="1056.37" y1="-8.67" x2="607.85" y2="-8.67"/>
			<line class="st2" x1="1056.37" y1="23.7" x2="607.85" y2="23.7"/>
			<line class="st2" x1="1056.37" y1="56.07" x2="607.85" y2="56.07"/>
			<line class="st2" x1="1056.37" y1="88.44" x2="607.85" y2="88.44"/>
			<line class="st2" x1="1056.37" y1="120.81" x2="607.85" y2="120.81"/>
			<line class="st2" x1="1056.37" y1="153.18" x2="607.85" y2="153.18"/>
			<line class="st2" x1="1056.37" y1="185.54" x2="607.85" y2="185.54"/>
			<line class="st2" x1="1056.37" y1="217.91" x2="607.85" y2="217.91"/>
			<line class="st2" x1="1056.37" y1="250.28" x2="607.85" y2="250.28"/>
			<line class="st2" x1="1056.37" y1="282.65" x2="607.85" y2="282.65"/>
			<line class="st2" x1="1056.37" y1="315.02" x2="607.85" y2="315.02"/>
			<line class="st2" x1="1056.37" y1="347.39" x2="607.85" y2="347.39"/>
		</g>
	</g>
</g>
<g id="Capa_1">
	<g>
		<g>
			<g>
				<path class="st3" d="M23.6,286.03l13.37-30.81h0.32l13.37,30.81H43.9l-8.54-21.66l4.23-2.9l-10.23,24.56H23.6z M32.74,275.31
					h8.9l2.05,4.91H30.93L32.74,275.31z"/>
				<path class="st3" d="M71.68,263.56c-1.13-0.62-2.27-1.13-3.44-1.53c-1.17-0.4-2.26-0.6-3.28-0.6c-1.26,0-2.25,0.26-2.98,0.77
					c-0.72,0.51-1.09,1.28-1.09,2.29c0,0.7,0.27,1.32,0.83,1.87c0.55,0.55,1.26,1.04,2.13,1.47c0.87,0.43,1.78,0.82,2.72,1.17
					c0.86,0.32,1.71,0.7,2.56,1.15c0.85,0.44,1.6,0.99,2.28,1.65c0.67,0.66,1.21,1.48,1.61,2.46c0.4,0.98,0.6,2.18,0.6,3.6
					c0,1.5-0.39,2.9-1.17,4.19c-0.78,1.29-1.92,2.33-3.42,3.12c-1.5,0.79-3.36,1.19-5.56,1.19c-1.13,0-2.27-0.11-3.44-0.34
					c-1.17-0.23-2.32-0.58-3.44-1.05c-1.13-0.47-2.21-1.07-3.26-1.79l2.58-4.55c0.7,0.51,1.46,0.96,2.28,1.35
					c0.82,0.39,1.64,0.69,2.48,0.91c0.83,0.21,1.6,0.32,2.29,0.32c0.7,0,1.4-0.1,2.11-0.3c0.71-0.2,1.3-0.54,1.77-1.03
					c0.47-0.48,0.7-1.15,0.7-2.01c0-0.59-0.2-1.13-0.58-1.61c-0.39-0.48-0.91-0.93-1.57-1.33c-0.66-0.4-1.38-0.75-2.15-1.05
					c-0.91-0.35-1.85-0.75-2.82-1.21c-0.97-0.46-1.87-1.01-2.72-1.67s-1.53-1.48-2.05-2.46c-0.52-0.98-0.79-2.18-0.79-3.6
					c0-1.72,0.38-3.21,1.15-4.47s1.85-2.26,3.24-3c1.4-0.74,3.01-1.15,4.83-1.23c2.39,0,4.33,0.28,5.82,0.85
					c1.49,0.56,2.83,1.24,4.01,2.01L71.68,263.56z"/>
				<path class="st3" d="M80.22,256.39h5.84v29.64h-5.84V256.39z"/>
				<path class="st3" d="M110.42,263.56c-1.13-0.62-2.27-1.13-3.44-1.53c-1.17-0.4-2.26-0.6-3.28-0.6c-1.26,0-2.25,0.26-2.98,0.77
					c-0.72,0.51-1.09,1.28-1.09,2.29c0,0.7,0.27,1.32,0.83,1.87c0.55,0.55,1.26,1.04,2.13,1.47c0.87,0.43,1.78,0.82,2.72,1.17
					c0.86,0.32,1.71,0.7,2.56,1.15c0.85,0.44,1.6,0.99,2.28,1.65c0.67,0.66,1.21,1.48,1.61,2.46c0.4,0.98,0.6,2.18,0.6,3.6
					c0,1.5-0.39,2.9-1.17,4.19c-0.78,1.29-1.92,2.33-3.42,3.12c-1.5,0.79-3.36,1.19-5.56,1.19c-1.13,0-2.27-0.11-3.44-0.34
					c-1.17-0.23-2.32-0.58-3.44-1.05c-1.13-0.47-2.21-1.07-3.26-1.79l2.58-4.55c0.7,0.51,1.46,0.96,2.28,1.35
					c0.82,0.39,1.64,0.69,2.48,0.91c0.83,0.21,1.6,0.32,2.29,0.32c0.7,0,1.4-0.1,2.11-0.3c0.71-0.2,1.3-0.54,1.77-1.03
					c0.47-0.48,0.7-1.15,0.7-2.01c0-0.59-0.2-1.13-0.58-1.61c-0.39-0.48-0.91-0.93-1.57-1.33c-0.66-0.4-1.38-0.75-2.15-1.05
					c-0.91-0.35-1.85-0.75-2.82-1.21c-0.97-0.46-1.87-1.01-2.72-1.67s-1.53-1.48-2.05-2.46c-0.52-0.98-0.79-2.18-0.79-3.6
					c0-1.72,0.38-3.21,1.15-4.47s1.85-2.26,3.24-3c1.4-0.74,3.01-1.15,4.83-1.23c2.39,0,4.33,0.28,5.82,0.85
					c1.49,0.56,2.83,1.24,4.01,2.01L110.42,263.56z"/>
				<path class="st3" d="M116.94,256.39h19.97v5.64h-7.21v24h-5.84v-24h-6.93V256.39z"/>
				<path class="st3" d="M143.44,256.39h20.21v5.64h-14.38v6.32H162v5.64h-12.72v6.4h14.94v5.64h-20.78V256.39z"/>
				<path class="st3" d="M197.68,287.23l-22.47-20.29l1.73,0.97l0.12,18.12h-5.92v-30.81h0.24l21.99,20.21l-1.29-0.56l-0.12-18.48
					h5.88v30.85H197.68z"/>
				<path class="st3" d="M204.36,256.39h19.97v5.64h-7.21v24h-5.84v-24h-6.93V256.39z"/>
				<path class="st3" d="M230.86,256.39h20.21v5.64H236.7v6.32h12.72v5.64H236.7v6.4h14.94v5.64h-20.78V256.39z"/>
				<path class="st3" d="M272.54,286.03v-29.64h8.86c2.98,0,5.52,0.44,7.61,1.33c2.09,0.89,3.78,2.07,5.05,3.54
					c1.27,1.48,2.21,3.13,2.8,4.95c0.59,1.83,0.89,3.67,0.89,5.52c0,2.2-0.4,4.18-1.19,5.94c-0.79,1.76-1.87,3.26-3.24,4.51
					s-2.95,2.2-4.75,2.86c-1.8,0.66-3.71,0.99-5.72,0.99H272.54z M278.38,280.39h3.46c1.48,0,2.82-0.19,4.03-0.58
					c1.21-0.39,2.25-0.96,3.12-1.71c0.87-0.75,1.54-1.7,2.01-2.84c0.47-1.14,0.7-2.45,0.7-3.93c0-1.93-0.32-3.51-0.95-4.73
					c-0.63-1.22-1.41-2.17-2.34-2.84c-0.93-0.67-1.87-1.13-2.84-1.39c-0.97-0.25-1.79-0.38-2.46-0.38h-4.75V280.39z"/>
				<path class="st3" d="M304.47,256.39h20.21v5.64h-14.38v6.32h12.72v5.64h-12.72v6.4h14.94v5.64h-20.78V256.39z"/>
				<path class="st3" d="M344.13,256.39h19.97v5.64h-7.21v24h-5.84v-24h-6.93V256.39z"/>
				<path class="st3" d="M379.61,256.39c1.85,0,3.5,0.24,4.95,0.71s2.66,1.14,3.64,2.01c0.98,0.87,1.72,1.92,2.23,3.14
					c0.51,1.22,0.77,2.6,0.77,4.13c0,1.21-0.18,2.42-0.54,3.62c-0.36,1.21-0.95,2.31-1.77,3.3c-0.82,0.99-1.9,1.79-3.24,2.4
					c-1.34,0.6-3.01,0.91-4.99,0.91h-4.19v9.42h-5.84v-29.64H379.61z M380.62,270.96c0.89,0,1.62-0.15,2.21-0.44
					c0.59-0.3,1.05-0.67,1.39-1.13c0.34-0.46,0.58-0.93,0.73-1.43c0.15-0.5,0.22-0.96,0.22-1.39c0-0.32-0.05-0.73-0.14-1.23
					c-0.09-0.5-0.29-1-0.58-1.51c-0.3-0.51-0.75-0.94-1.35-1.29c-0.6-0.35-1.42-0.52-2.44-0.52h-4.19v8.94H380.62z M386.09,274.59
					l7.33,11.44h-6.81l-7.49-11.28L386.09,274.59z"/>
				<path class="st3" d="M395.8,286.03l13.37-30.81h0.32l13.37,30.81h-6.77l-8.54-21.66l4.23-2.9l-10.23,24.56H395.8z
					 M404.94,275.31h8.9l2.05,4.91h-12.77L404.94,275.31z"/>
				<path class="st3" d="M428.05,286.03v-29.64h8.86c2.98,0,5.52,0.44,7.61,1.33c2.09,0.89,3.78,2.07,5.05,3.54
					c1.27,1.48,2.21,3.13,2.8,4.95c0.59,1.83,0.89,3.67,0.89,5.52c0,2.2-0.4,4.18-1.19,5.94c-0.79,1.76-1.87,3.26-3.24,4.51
					s-2.95,2.2-4.75,2.86c-1.8,0.66-3.71,0.99-5.72,0.99H428.05z M433.89,280.39h3.46c1.48,0,2.82-0.19,4.03-0.58
					c1.21-0.39,2.25-0.96,3.12-1.71c0.87-0.75,1.54-1.7,2.01-2.84c0.47-1.14,0.7-2.45,0.7-3.93c0-1.93-0.32-3.51-0.95-4.73
					c-0.63-1.22-1.41-2.17-2.34-2.84c-0.93-0.67-1.87-1.13-2.84-1.39c-0.97-0.25-1.79-0.38-2.46-0.38h-4.75V280.39z"/>
				<path class="st3" d="M459.99,256.39h5.84v29.64h-5.84V256.39z"/>
				<path class="st3" d="M500.9,287.23l-22.47-20.29l1.73,0.97l0.12,18.12h-5.92v-30.81h0.24l21.99,20.21l-1.29-0.56l-0.12-18.48
					h5.88v30.85H500.9z"/>
				<path class="st3" d="M533.64,283.05c-0.35,0.38-0.9,0.76-1.65,1.15c-0.75,0.39-1.62,0.75-2.6,1.07c-0.98,0.32-1.98,0.58-3,0.79
					c-1.02,0.2-1.99,0.3-2.9,0.3c-2.42,0-4.59-0.36-6.52-1.07c-1.93-0.71-3.58-1.7-4.95-2.98s-2.42-2.79-3.14-4.53
					c-0.72-1.75-1.09-3.65-1.09-5.72c0-2.71,0.41-5.07,1.23-7.07c0.82-2,1.93-3.67,3.34-4.99c1.41-1.33,3.03-2.32,4.87-2.96
					c1.84-0.64,3.77-0.97,5.78-0.97c1.91,0,3.65,0.21,5.23,0.62c1.58,0.42,2.93,0.93,4.03,1.55l-1.89,5.44
					c-0.48-0.27-1.13-0.54-1.93-0.81c-0.81-0.27-1.62-0.49-2.46-0.66c-0.83-0.17-1.57-0.26-2.21-0.26c-1.61,0-3.03,0.2-4.27,0.6
					c-1.23,0.4-2.27,1.01-3.12,1.81c-0.85,0.8-1.48,1.81-1.91,3c-0.43,1.19-0.64,2.58-0.64,4.17c0,1.4,0.24,2.65,0.72,3.77
					c0.48,1.11,1.16,2.06,2.03,2.84c0.87,0.78,1.91,1.37,3.1,1.77c1.19,0.4,2.52,0.6,3.97,0.6c0.83,0,1.6-0.06,2.29-0.18
					c0.7-0.12,1.29-0.32,1.77-0.58v-3.58h-5.11v-5.64h11.03V283.05z"/>
				<path class="st3" d="M555.14,256.39h5.84v29.64h-5.84V256.39z"/>
				<path class="st3" d="M596.05,287.23l-22.47-20.29l1.73,0.97l0.12,18.12h-5.92v-30.81h0.24l21.99,20.21l-1.29-0.56l-0.12-18.48
					h5.88v30.85H596.05z"/>
				<path class="st3" d="M602.74,256.39h19.97v5.64h-7.21v24h-5.84v-24h-6.93V256.39z"/>
				<path class="st3" d="M629.23,256.39h20.21v5.64h-14.38v6.32h12.72v5.64h-12.72v6.4h14.94v5.64h-20.78V256.39z"/>
				<path class="st3" d="M656.94,256.39h5.84v24h13.93v5.64h-19.77V256.39z"/>
				<path class="st3" d="M683.64,256.39h5.84v29.64h-5.84V256.39z"/>
				<path class="st3" d="M722.05,283.05c-0.35,0.38-0.9,0.76-1.65,1.15c-0.75,0.39-1.62,0.75-2.6,1.07c-0.98,0.32-1.98,0.58-3,0.79
					c-1.02,0.2-1.99,0.3-2.9,0.3c-2.42,0-4.59-0.36-6.52-1.07c-1.93-0.71-3.58-1.7-4.95-2.98s-2.42-2.79-3.14-4.53
					c-0.72-1.75-1.09-3.65-1.09-5.72c0-2.71,0.41-5.07,1.23-7.07c0.82-2,1.93-3.67,3.34-4.99c1.41-1.33,3.03-2.32,4.87-2.96
					c1.84-0.64,3.77-0.97,5.78-0.97c1.91,0,3.65,0.21,5.23,0.62c1.58,0.42,2.93,0.93,4.03,1.55l-1.89,5.44
					c-0.48-0.27-1.13-0.54-1.93-0.81c-0.81-0.27-1.62-0.49-2.46-0.66c-0.83-0.17-1.57-0.26-2.21-0.26c-1.61,0-3.03,0.2-4.27,0.6
					c-1.23,0.4-2.27,1.01-3.12,1.81c-0.85,0.8-1.48,1.81-1.91,3c-0.43,1.19-0.64,2.58-0.64,4.17c0,1.4,0.24,2.65,0.72,3.77
					c0.48,1.11,1.16,2.06,2.03,2.84c0.87,0.78,1.91,1.37,3.1,1.77c1.19,0.4,2.52,0.6,3.97,0.6c0.83,0,1.6-0.06,2.29-0.18
					c0.7-0.12,1.29-0.32,1.77-0.58v-3.58h-5.11v-5.64h11.03V283.05z"/>
				<path class="st3" d="M729.58,256.39h20.21v5.64h-14.38v6.32h12.72v5.64h-12.72v6.4h14.94v5.64h-20.78V256.39z"/>
				<path class="st3" d="M783.82,287.23l-22.47-20.29l1.73,0.97l0.12,18.12h-5.92v-30.81h0.24l21.99,20.21l-1.29-0.56l-0.12-18.48
					h5.88v30.85H783.82z"/>
				<path class="st3" d="M790.51,256.39h19.97v5.64h-7.21v24h-5.84v-24h-6.93V256.39z"/>
				<path class="st3" d="M817,256.39h20.21v5.64h-14.38v6.32h12.72v5.64h-12.72v6.4h14.94v5.64H817V256.39z"/>
			</g>
		</g>
		<g>
			<linearGradient id="SVGID_1_" gradientUnits="userSpaceOnUse" x1="254.0841" y1="108.539" x2="334.3795" y2="235.274">
				<stop  offset="0" style="stop-color:#194397"/>
				<stop  offset="1" style="stop-color:#01AAD1"/>
			</linearGradient>
			<polygon class="st4" points="289.99,64.91 373.28,209.17 254.3,209.17 278.09,167.96 301.89,167.96 266.19,106.13 			"/>
			
				<linearGradient id="SVGID_00000065048655780274091350000003437909358833378494_" gradientUnits="userSpaceOnUse" x1="214.6722" y1="217.358" x2="299.1622" y2="67.5531">
				<stop  offset="0" style="stop-color:#194397"/>
				<stop  offset="1" style="stop-color:#01AAD1"/>
			</linearGradient>
			<path style="fill:url(#SVGID_00000065048655780274091350000003437909358833378494_);" d="M182.91,209.17L278.09,44.3l35.7,61.83
				h0c-14.73,0-28.33,7.86-35.7,20.61l-47.59,82.43H182.91z"/>
			
				<linearGradient id="SVGID_00000021811465289896138990000001005987259161842620_" gradientUnits="userSpaceOnUse" x1="438.3117" y1="64.7546" x2="527.8914" y2="64.7546">
				<stop  offset="0" style="stop-color:#194397"/>
				<stop  offset="1" style="stop-color:#01AAD1"/>
			</linearGradient>
			<polygon style="fill:url(#SVGID_00000021811465289896138990000001005987259161842620_);" points="466.47,85.21 527.96,85.21 
				527.96,44.3 442.87,44.3 			"/>
			
				<linearGradient id="SVGID_00000137107588109681525360000001866348099977650089_" gradientUnits="userSpaceOnUse" x1="617.1977" y1="148.3481" x2="617.1977" y2="60.7308">
				<stop  offset="0" style="stop-color:#194397"/>
				<stop  offset="1" style="stop-color:#01AAD1"/>
			</linearGradient>
			
				<rect x="599.35" y="44.3" style="fill:url(#SVGID_00000137107588109681525360000001866348099977650089_);" width="35.7" height="103.04"/>
			
				<linearGradient id="SVGID_00000106854023549864156200000004321017345252141442_" gradientUnits="userSpaceOnUse" x1="432.7721" y1="210.3673" x2="432.7721" y2="66.094">
				<stop  offset="0" style="stop-color:#194397"/>
				<stop  offset="1" style="stop-color:#01AAD1"/>
			</linearGradient>
			<path style="fill:url(#SVGID_00000106854023549864156200000004321017345252141442_);" d="M385.18,44.3v41.22h47.59v123.65h47.59
				V74.69c0-16.78-13.61-30.39-30.39-30.39H385.18z"/>
			
				<linearGradient id="SVGID_00000116193299167006885360000017791149508547857282_" gradientUnits="userSpaceOnUse" x1="617.1977" y1="208.8692" x2="617.1977" y2="122.8812">
				<stop  offset="0" style="stop-color:#194397"/>
				<stop  offset="1" style="stop-color:#01AAD1"/>
			</linearGradient>
			<path style="fill:url(#SVGID_00000116193299167006885360000017791149508547857282_);" d="M599.35,209.17h35.7V127.1
				c0-12.97-6.92-24.96-18.16-31.45l-17.54-10.13V209.17z"/>
		</g>
	</g>
</g>
</svg>
