<svg width="571" height="111" viewBox="0 0 571 111" fill="none" xmlns="http://www.w3.org/2000/svg">
<path d="M47.24 106.25H31.1899V73.2402C31.1899 68.8102 34.78 65.2202 39.21 65.2202H95V81.2703H47.24V106.25Z" fill="#0666F9"/>
<path d="M101.38 35.66C100.39 32.81 99.1199 30.03 97.6299 27.36C92.9199 19.01 86.14 12.4001 77.46 7.72006C68.96 3.14006 59.03 0.810059 47.95 0.810059H39.21C34.78 0.810059 31.1899 4.40005 31.1899 8.83005V16.8501V38.3101C31.1899 42.7401 34.78 46.3301 39.21 46.3301H87.71C88.27 49.1901 88.5601 52.1901 88.5601 55.3401C88.5601 60.7701 87.69 65.84 85.97 70.42C85.32 72.17 84.5299 73.8701 83.6299 75.5001C80.3699 81.3601 75.83 85.8601 69.75 89.2401C63.64 92.6501 56.31 94.3701 47.95 94.3701H16.99V16.6301H0.939941V110.41H47.95C59.07 110.41 69.03 108 77.55 103.25C86.19 98.4401 92.9499 91.73 97.6499 83.29C98.9399 80.97 100.07 78.5201 101 76.05C103.4 69.68 104.61 62.7201 104.61 55.3401C104.61 48.3501 103.52 41.72 101.38 35.66ZM47.23 30.3V16.86H47.9399C56.3299 16.86 63.7001 18.5401 69.8401 21.8401C74.0301 24.1001 77.48 26.89 80.27 30.3H47.23Z" fill="url(#paint0_linear_36_86)"/>
<path d="M87.71 46.3399H39.21C34.78 46.3399 31.1899 42.7499 31.1899 38.3199V8.83984H47.24V30.2998H80.28C81.53 31.8198 82.6499 33.4598 83.6499 35.2298C84.6899 37.0798 85.56 39.0098 86.26 40.9898V40.9998C86.85 42.6998 87.33 44.4799 87.71 46.3399Z" fill="url(#paint1_linear_36_86)"/>
<path d="M42.99 94.3799H16.99L0.939941 110.43H42.99" fill="url(#paint2_linear_36_86)"/>
<path d="M47.24 110.43H31.1899V73.2402C31.1899 68.8102 34.78 65.2202 39.21 65.2202H89.6101V81.2703H47.23V110.43H47.24Z" fill="url(#paint3_linear_36_86)"/>
<path d="M77.55 103.27C86.19 98.4599 92.9499 91.7499 97.6499 83.3099C98.9399 80.9899 100.07 78.5399 101 76.0699C103.4 69.6999 104.61 62.7399 104.61 55.3599H88.5601C88.5601 60.7899 87.69 65.8599 85.97 70.4399C85.32 72.1899 84.5299 73.8899 83.6299 75.5199C80.3699 81.3799 75.83 85.8799 69.75 89.2599L77.55 103.27Z" fill="url(#paint4_linear_36_86)"/>
<path d="M160.14 48.3897C162.98 49.8897 165.17 51.9997 166.73 54.7197C168.28 57.4397 169.06 60.5697 169.06 64.1297C169.06 67.6497 168.28 70.7797 166.73 73.5097C165.18 76.2397 162.97 78.3597 160.12 79.8697C157.27 81.3697 153.96 82.1297 150.2 82.1297H136.72V46.1397H150.2C153.99 46.1297 157.31 46.8897 160.14 48.3897ZM157.38 71.8197C159.23 70.0097 160.15 67.4497 160.15 64.1297C160.15 60.8197 159.23 58.2297 157.38 56.3897C155.54 54.5397 152.95 53.6197 149.64 53.6197H145.49V74.5397H149.64C152.95 74.5297 155.53 73.6297 157.38 71.8197Z" fill="#000034"/>
<path d="M202.23 53.5198V82.1198H193.46V78.2197C192.57 79.4797 191.37 80.4998 189.84 81.2698C188.32 82.0398 186.64 82.4197 184.79 82.4197C182.6 82.4197 180.67 81.9298 179 80.9598C177.33 79.9898 176.03 78.5797 175.1 76.7297C174.18 74.8897 173.72 72.7197 173.72 70.2197V53.5098H182.43V69.0397C182.43 70.9597 182.92 72.4398 183.92 73.4998C184.91 74.5598 186.24 75.0898 187.92 75.0898C189.63 75.0898 190.98 74.5598 191.97 73.4998C192.96 72.4398 193.46 70.9597 193.46 69.0397V53.5098H202.23V53.5198Z" fill="#000034"/>
<path d="M253.52 56.4398C255.62 58.5898 256.67 61.5798 256.67 65.4098V82.1198H247.96V66.5899C247.96 64.7399 247.47 63.3198 246.5 62.3098C245.53 61.2998 244.18 60.7998 242.48 60.7998C240.78 60.7998 239.43 61.2998 238.46 62.3098C237.49 63.3198 237 64.7499 237 66.5899V82.1198H228.29V66.5899C228.29 64.7399 227.8 63.3198 226.83 62.3098C225.86 61.2998 224.51 60.7998 222.81 60.7998C221.1 60.7998 219.76 61.2998 218.79 62.3098C217.82 63.3198 217.33 64.7499 217.33 66.5899V82.1198H208.56V53.5198H217.33V57.1098C218.22 55.9098 219.38 54.9698 220.82 54.2698C222.26 53.5698 223.88 53.2198 225.69 53.2198C227.84 53.2198 229.77 53.6798 231.46 54.5998C233.15 55.5198 234.48 56.8398 235.43 58.5498C236.42 56.9798 237.77 55.6998 239.48 54.7098C241.19 53.7198 243.05 53.2198 245.07 53.2198C248.59 53.2098 251.42 54.2898 253.52 56.4398Z" fill="#000034"/>
<path d="M307.8 56.4398C309.9 58.5898 310.95 61.5798 310.95 65.4098V82.1198H302.24V66.5899C302.24 64.7399 301.75 63.3198 300.78 62.3098C299.81 61.2998 298.47 60.7998 296.76 60.7998C295.05 60.7998 293.71 61.2998 292.74 62.3098C291.77 63.3198 291.28 64.7499 291.28 66.5899V82.1198H282.57V66.5899C282.57 64.7399 282.08 63.3198 281.11 62.3098C280.14 61.2998 278.79 60.7998 277.08 60.7998C275.37 60.7998 274.03 61.2998 273.06 62.3098C272.09 63.3198 271.6 64.7499 271.6 66.5899V82.1198H262.83V53.5198H271.6V57.1098C272.49 55.9098 273.65 54.9698 275.09 54.2698C276.52 53.5698 278.15 53.2198 279.96 53.2198C282.11 53.2198 284.04 53.6798 285.73 54.5998C287.42 55.5198 288.75 56.8398 289.7 58.5498C290.69 56.9798 292.04 55.6998 293.75 54.7098C295.46 53.7198 297.32 53.2198 299.34 53.2198C302.88 53.2098 305.7 54.2898 307.8 56.4398Z" fill="#000034"/>
<path d="M317.75 49.1798C316.78 48.2698 316.29 47.1598 316.29 45.8198C316.29 44.4498 316.78 43.3198 317.75 42.4098C318.72 41.4998 319.98 41.0498 321.52 41.0498C323.02 41.0498 324.26 41.4998 325.24 42.4098C326.21 43.3198 326.7 44.4498 326.7 45.8198C326.7 47.1498 326.21 48.2698 325.24 49.1798C324.27 50.0898 323.03 50.5398 321.52 50.5398C319.98 50.5398 318.72 50.0898 317.75 49.1798ZM325.88 53.5198V82.1198H317.11V53.5198H325.88Z" fill="#000034"/>
<path d="M359.04 69.9196H339.2C339.34 71.6996 339.91 73.0596 340.92 73.9996C341.93 74.9396 343.17 75.4096 344.64 75.4096C346.83 75.4096 348.35 74.4896 349.2 72.6396H358.53C358.05 74.5196 357.19 76.2096 355.94 77.7196C354.69 79.2196 353.13 80.3996 351.25 81.2596C349.37 82.1096 347.27 82.5396 344.94 82.5396C342.14 82.5396 339.64 81.9396 337.46 80.7496C335.28 79.5596 333.56 77.8496 332.33 75.6196C331.1 73.3996 330.49 70.7997 330.49 67.8297C330.49 64.8597 331.1 62.2596 332.31 60.0396C333.52 57.8196 335.22 56.1096 337.41 54.9096C339.6 53.7096 342.11 53.1196 344.95 53.1196C347.72 53.1196 350.18 53.6996 352.33 54.8596C354.48 56.0196 356.16 57.6797 357.38 59.8297C358.59 61.9797 359.2 64.4896 359.2 67.3696C359.2 68.1796 359.14 69.0296 359.04 69.9196ZM350.22 65.0496C350.22 63.5496 349.71 62.3497 348.68 61.4597C347.65 60.5697 346.37 60.1296 344.84 60.1296C343.37 60.1296 342.13 60.5596 341.12 61.4096C340.11 62.2596 339.49 63.4796 339.25 65.0496H350.22Z" fill="#000034"/>
<path d="M401.44 46.4902V51.2603H391.96V82.1202H386.12V51.2603H376.58V46.4902H401.44Z" fill="#000034"/>
<path d="M416.59 54.6202C418.01 53.8202 419.69 53.4102 421.64 53.4102V59.4602H420.15C417.86 59.4602 416.13 60.0402 414.95 61.2002C413.77 62.3602 413.18 64.3802 413.18 67.2502V82.1202H407.34V53.8702H413.18V57.9702C414.03 56.5402 415.17 55.4202 416.59 54.6202Z" fill="#000034"/>
<path d="M426.84 60.3302C428.02 58.1402 429.63 56.4402 431.66 55.2302C433.69 54.0202 435.94 53.4102 438.4 53.4102C440.62 53.4102 442.56 53.8502 444.22 54.7202C445.88 55.5902 447.2 56.6802 448.19 57.9702V53.8702H454.09V82.1202H448.19V77.9202C447.2 79.2502 445.85 80.3602 444.14 81.2502C442.43 82.1402 440.48 82.5802 438.3 82.5802C435.87 82.5802 433.65 81.9602 431.64 80.7102C429.62 79.4602 428.03 77.7202 426.85 75.4802C425.67 73.2402 425.08 70.7002 425.08 67.8702C425.07 65.0302 425.66 62.5202 426.84 60.3302ZM446.98 62.9002C446.18 61.4602 445.12 60.3702 443.83 59.6202C442.53 58.8702 441.13 58.4902 439.63 58.4902C438.13 58.4902 436.73 58.8602 435.43 59.5902C434.13 60.3302 433.08 61.4002 432.28 62.8202C431.48 64.2402 431.07 65.9202 431.07 67.8702C431.07 69.8202 431.47 71.5302 432.28 73.0002C433.08 74.4702 434.14 75.5902 435.46 76.3602C436.78 77.1302 438.17 77.5102 439.64 77.5102C441.14 77.5102 442.55 77.1302 443.84 76.3802C445.14 75.6302 446.19 74.5302 446.99 73.0702C447.79 71.6202 448.19 69.9202 448.19 67.9702C448.19 66.0202 447.79 64.3302 446.98 62.9002Z" fill="#000034"/>
<path d="M461.59 60.3302C462.77 58.1402 464.38 56.4402 466.41 55.2302C468.44 54.0202 470.71 53.4102 473.2 53.4102C475.04 53.4102 476.86 53.8102 478.66 54.6202C480.45 55.4202 481.88 56.4902 482.94 57.8202V44.1802H488.84V82.1102H482.94V77.8602C481.98 79.2302 480.66 80.3602 478.97 81.2402C477.28 82.1302 475.34 82.5702 473.15 82.5702C470.69 82.5702 468.44 81.9502 466.41 80.7002C464.38 79.4502 462.77 77.7102 461.59 75.4702C460.41 73.2302 459.82 70.6902 459.82 67.8602C459.82 65.0302 460.41 62.5202 461.59 60.3302ZM481.74 62.9002C480.94 61.4602 479.88 60.3702 478.59 59.6202C477.29 58.8702 475.89 58.4902 474.39 58.4902C472.89 58.4902 471.49 58.8602 470.19 59.5902C468.89 60.3302 467.84 61.4002 467.04 62.8202C466.24 64.2402 465.83 65.9202 465.83 67.8702C465.83 69.8202 466.23 71.5302 467.04 73.0002C467.84 74.4702 468.9 75.5902 470.22 76.3602C471.54 77.1302 472.93 77.5102 474.4 77.5102C475.9 77.5102 477.31 77.1302 478.6 76.3802C479.9 75.6302 480.95 74.5302 481.75 73.0702C482.55 71.6202 482.95 69.9202 482.95 67.9702C482.95 66.0202 482.54 64.3302 481.74 62.9002Z" fill="#000034"/>
<path d="M496.84 49.0601C496.12 48.3401 495.76 47.4501 495.76 46.3901C495.76 45.3301 496.12 44.4401 496.84 43.7201C497.56 43.0001 498.45 42.6401 499.51 42.6401C500.54 42.6401 501.41 43.0001 502.12 43.7201C502.83 44.4401 503.2 45.3301 503.2 46.3901C503.2 47.4501 502.84 48.3401 502.12 49.0601C501.4 49.7801 500.53 50.1401 499.51 50.1401C498.44 50.1301 497.55 49.7701 496.84 49.0601ZM502.37 53.8801V82.1301H496.53V53.8801H502.37Z" fill="#000034"/>
<path d="M530.29 54.8002C532.05 55.7202 533.42 57.0902 534.42 58.9002C535.42 60.7102 535.91 62.9002 535.91 65.4602V82.1202H530.12V66.3302C530.12 63.8002 529.49 61.8602 528.22 60.5102C526.95 59.1602 525.23 58.4902 523.04 58.4902C520.85 58.4902 519.12 59.1602 517.84 60.5102C516.56 61.8602 515.92 63.8002 515.92 66.3302V82.1202H510.08V53.8702H515.92V57.1002C516.88 55.9402 518.1 55.0302 519.59 54.3802C521.08 53.7302 522.66 53.4102 524.33 53.4102C526.53 53.4102 528.52 53.8802 530.29 54.8002Z" fill="#000034"/>
<path d="M560.53 54.7201C562.22 55.5901 563.55 56.6801 564.5 57.9701V53.8701H570.39V82.5801C570.39 85.1801 569.84 87.4901 568.75 89.5301C567.66 91.5601 566.08 93.1601 564.01 94.3201C561.94 95.4801 559.47 96.0601 556.6 96.0601C552.77 96.0601 549.59 95.1601 547.06 93.3701C544.53 91.5801 543.1 89.1401 542.75 86.0701H548.54C548.98 87.5401 549.93 88.7301 551.39 89.6301C552.84 90.5401 554.58 90.9901 556.59 90.9901C558.95 90.9901 560.85 90.2701 562.31 88.8401C563.76 87.4001 564.49 85.3201 564.49 82.5901V77.8701C563.5 79.2001 562.16 80.3201 560.47 81.2301C558.78 82.1401 556.85 82.5901 554.7 82.5901C552.24 82.5901 549.99 81.9701 547.96 80.7201C545.93 79.4701 544.32 77.7301 543.14 75.4901C541.96 73.2501 541.37 70.7101 541.37 67.8801C541.37 65.0401 541.96 62.5301 543.14 60.3401C544.32 58.1501 545.93 56.4501 547.96 55.2401C549.99 54.0301 552.24 53.4201 554.7 53.4201C556.9 53.4101 558.84 53.8501 560.53 54.7201ZM563.3 62.9001C562.5 61.4601 561.45 60.3701 560.15 59.6201C558.85 58.8701 557.45 58.4901 555.95 58.4901C554.45 58.4901 553.04 58.8601 551.75 59.5901C550.45 60.3301 549.4 61.4001 548.6 62.8201C547.8 64.2401 547.4 65.9201 547.4 67.8701C547.4 69.8201 547.8 71.5301 548.6 73.0001C549.4 74.4701 550.46 75.5901 551.78 76.3601C553.09 77.1301 554.49 77.5101 555.96 77.5101C557.46 77.5101 558.86 77.1301 560.16 76.3801C561.46 75.6301 562.51 74.5301 563.31 73.0701C564.11 71.6201 564.52 69.9201 564.52 67.9701C564.52 66.0201 564.1 64.3301 563.3 62.9001Z" fill="#000034"/>
<defs>
<linearGradient id="paint0_linear_36_86" x1="40.3831" y1="111.905" x2="56.1733" y2="18.5994" gradientUnits="userSpaceOnUse">
<stop stop-color="#0063F4"/>
<stop offset="1" stop-color="#05D2FD"/>
</linearGradient>
<linearGradient id="paint1_linear_36_86" x1="90.6892" y1="28.3235" x2="54.019" y2="27.7571" gradientUnits="userSpaceOnUse">
<stop offset="0.0101" stop-color="#0A6592"/>
<stop offset="0.9899" stop-color="white" stop-opacity="0"/>
</linearGradient>
<linearGradient id="paint2_linear_36_86" x1="51.3909" y1="102.405" x2="9.82075" y2="102.405" gradientUnits="userSpaceOnUse">
<stop offset="0.1805" stop-color="#0A6592"/>
<stop offset="0.9899" stop-color="white" stop-opacity="0"/>
</linearGradient>
<linearGradient id="paint3_linear_36_86" x1="53.8057" y1="114.407" x2="70.2109" y2="21.1012" gradientUnits="userSpaceOnUse">
<stop stop-color="#0063F4"/>
<stop offset="1" stop-color="#05D2FD"/>
</linearGradient>
<linearGradient id="paint4_linear_36_86" x1="79.6084" y1="118.771" x2="95.8088" y2="25.2604" gradientUnits="userSpaceOnUse">
<stop stop-color="#0063F4"/>
<stop offset="1" stop-color="#05D2FD"/>
</linearGradient>
</defs>
</svg>
