<svg width="243" height="93" viewBox="0 0 243 93" fill="none" xmlns="http://www.w3.org/2000/svg">
<path d="M78.47 61.862H98.496V68H70.1V62.482L90.064 31.048H70.1V24.91H98.496V30.428L78.47 61.862ZM137.16 33.838V68H130.092V63.97C128.976 65.3753 127.509 66.4913 125.69 67.318C123.913 68.1033 122.012 68.496 119.986 68.496C117.3 68.496 114.882 67.938 112.732 66.822C110.624 65.706 108.95 64.0527 107.71 61.862C106.512 59.6713 105.912 57.026 105.912 53.926V33.838H112.918V52.872C112.918 55.9307 113.683 58.2867 115.212 59.94C116.742 61.552 118.829 62.358 121.474 62.358C124.12 62.358 126.207 61.552 127.736 59.94C129.307 58.2867 130.092 55.9307 130.092 52.872V33.838H137.16ZM153.554 38.86C154.753 37.2893 156.385 35.9667 158.452 34.892C160.519 33.8173 162.854 33.28 165.458 33.28C168.434 33.28 171.141 34.024 173.58 35.512C176.06 36.9587 178.003 39.0047 179.408 41.65C180.813 44.2953 181.516 47.3333 181.516 50.764C181.516 54.1947 180.813 57.274 179.408 60.002C178.003 62.6887 176.06 64.7967 173.58 66.326C171.141 67.814 168.434 68.558 165.458 68.558C162.854 68.558 160.539 68.0413 158.514 67.008C156.489 65.9333 154.835 64.6107 153.554 63.04V84.244H146.486V33.838H153.554V38.86ZM174.324 50.764C174.324 48.408 173.828 46.3827 172.836 44.688C171.885 42.952 170.604 41.65 168.992 40.782C167.421 39.8727 165.727 39.418 163.908 39.418C162.131 39.418 160.436 39.8727 158.824 40.782C157.253 41.6913 155.972 43.014 154.98 44.75C154.029 46.486 153.554 48.532 153.554 50.888C153.554 53.244 154.029 55.3107 154.98 57.088C155.972 58.824 157.253 60.1467 158.824 61.056C160.436 61.9653 162.131 62.42 163.908 62.42C165.727 62.42 167.421 61.9653 168.992 61.056C170.604 60.1053 171.885 58.7413 172.836 56.964C173.828 55.1867 174.324 53.12 174.324 50.764ZM195.573 38.86C196.772 37.2893 198.405 35.9667 200.471 34.892C202.538 33.8173 204.873 33.28 207.477 33.28C210.453 33.28 213.161 34.024 215.599 35.512C218.079 36.9587 220.022 39.0047 221.427 41.65C222.833 44.2953 223.535 47.3333 223.535 50.764C223.535 54.1947 222.833 57.274 221.427 60.002C220.022 62.6887 218.079 64.7967 215.599 66.326C213.161 67.814 210.453 68.558 207.477 68.558C204.873 68.558 202.559 68.0413 200.533 67.008C198.508 65.9333 196.855 64.6107 195.573 63.04V84.244H188.505V33.838H195.573V38.86ZM216.343 50.764C216.343 48.408 215.847 46.3827 214.855 44.688C213.905 42.952 212.623 41.65 211.011 40.782C209.441 39.8727 207.746 39.418 205.927 39.418C204.15 39.418 202.455 39.8727 200.843 40.782C199.273 41.6913 197.991 43.014 196.999 44.75C196.049 46.486 195.573 48.532 195.573 50.888C195.573 53.244 196.049 55.3107 196.999 57.088C197.991 58.824 199.273 60.1467 200.843 61.056C202.455 61.9653 204.15 62.42 205.927 62.42C207.746 62.42 209.441 61.9653 211.011 61.056C212.623 60.1053 213.905 58.7413 214.855 56.964C215.847 55.1867 216.343 53.12 216.343 50.764ZM234.121 29.312C232.84 29.312 231.765 28.878 230.897 28.01C230.029 27.142 229.595 26.0673 229.595 24.786C229.595 23.5047 230.029 22.43 230.897 21.562C231.765 20.694 232.84 20.26 234.121 20.26C235.361 20.26 236.415 20.694 237.283 21.562C238.151 22.43 238.585 23.5047 238.585 24.786C238.585 26.0673 238.151 27.142 237.283 28.01C236.415 28.878 235.361 29.312 234.121 29.312ZM237.593 33.838V68H230.525V33.838H237.593Z" fill="white"/>
<path d="M7.93893 35.4809H34.856C34.8939 35.4809 34.9128 35.4809 34.9343 35.4838C34.9559 35.4867 34.9738 35.4916 35.0097 35.5014C37.4765 36.1769 37.6975 39.0658 36.5191 40.2443L27.3069 49.4565C26.8354 49.9279 26.5997 50.1636 26.6828 50.3643C26.7659 50.5649 27.0977 50.5649 27.7611 50.5649H42.8702C44.8549 50.5649 46.0458 48.9771 46.0458 47.3893V29.1298C46.0458 27.3256 44.707 26.1914 42.9094 25.9591C42.891 25.9567 42.8818 25.9555 42.8713 25.9549C42.8609 25.9542 42.8532 25.9542 42.8378 25.9542H24.6107C23.0229 25.9542 21.832 28.3359 21.8321 29.5267L21.8321 34.7894C21.8321 35.0945 21.8321 35.2471 21.7369 35.3423C21.6417 35.4375 21.4885 35.4375 21.1821 35.4375H16.2248C15.9293 35.4375 15.7815 35.4375 15.687 35.346C15.5925 35.2544 15.5877 35.1078 15.5783 34.8145C15.544 33.747 15.4809 31.4215 15.4809 28.7328C15.4809 25.0375 18.0375 20 23.4198 20H43.6641C48.425 20 52 24.875 52 28.7328L52 33.4571C52 38.4902 52 45.309 52 48.1832C51.9999 52.175 48.0305 56.1221 43.6641 56.1221H17.4656C14.29 56.1221 13.8931 53.7404 15.8779 51.7557C17.4271 50.2065 22.8458 44.5459 25.1494 42.1362C25.5977 41.6672 25.8219 41.4327 25.7376 41.2354C25.6533 41.0382 25.3304 41.0382 24.6846 41.0382H9.52671C7.93893 41.0382 6.35112 43.0229 6.35114 44.6107C6.35117 46.1985 6.74811 60.4885 6.74809 62.8702C6.74806 65.2519 7.93893 66.0458 9.52671 66.0458H27.7863C29.374 66.0458 30.5649 64.8549 30.5649 63.2672V56.8859C30.5649 56.5805 30.5649 56.4279 30.6601 56.3327C30.7553 56.2375 30.9085 56.2375 31.2149 56.2375H36.266C36.5724 56.2375 36.7256 56.2375 36.8208 56.3327C36.916 56.4279 36.916 56.5806 36.916 56.8861V63.2672C36.916 67.6336 32.1526 72 28.9771 72H7.93893C3.17555 72 3.11908e-10 67.6336 3.11908e-10 64.0611L5.89802e-06 59.5437C1.44169e-05 54.4261 2.64308e-05 47.2089 3.11908e-10 44.6107C-3.6341e-05 41.0382 3.17557 35.4809 7.93893 35.4809Z" fill="#0057FF"/>
<path d="M7.93893 35.4809H34.856C34.8939 35.4809 34.9128 35.4809 34.9343 35.4838C34.9559 35.4867 34.9738 35.4916 35.0097 35.5014C37.4765 36.1769 37.6975 39.0658 36.5191 40.2443L27.3069 49.4565C26.8354 49.9279 26.5997 50.1636 26.6828 50.3643C26.7659 50.5649 27.0977 50.5649 27.7611 50.5649H42.8702C44.8549 50.5649 46.0458 48.9771 46.0458 47.3893V29.1298C46.0458 27.3256 44.707 26.1914 42.9094 25.9591C42.891 25.9567 42.8818 25.9555 42.8713 25.9549C42.8609 25.9542 42.8532 25.9542 42.8378 25.9542H24.6107C23.0229 25.9542 21.832 28.3359 21.8321 29.5267L21.8321 34.7894C21.8321 35.0945 21.8321 35.2471 21.7369 35.3423C21.6417 35.4375 21.4885 35.4375 21.1821 35.4375H16.2248C15.9293 35.4375 15.7815 35.4375 15.687 35.346C15.5925 35.2544 15.5877 35.1078 15.5783 34.8145C15.544 33.747 15.4809 31.4215 15.4809 28.7328C15.4809 25.0375 18.0375 20 23.4198 20H43.6641C48.425 20 52 24.875 52 28.7328L52 33.4571C52 38.4902 52 45.309 52 48.1832C51.9999 52.175 48.0305 56.1221 43.6641 56.1221H17.4656C14.29 56.1221 13.8931 53.7404 15.8779 51.7557C17.4271 50.2065 22.8458 44.5459 25.1494 42.1362C25.5977 41.6672 25.8219 41.4327 25.7376 41.2354C25.6533 41.0382 25.3304 41.0382 24.6846 41.0382H9.52671C7.93893 41.0382 6.35112 43.0229 6.35114 44.6107C6.35117 46.1985 6.74811 60.4885 6.74809 62.8702C6.74806 65.2519 7.93893 66.0458 9.52671 66.0458H27.7863C29.374 66.0458 30.5649 64.8549 30.5649 63.2672V56.8859C30.5649 56.5805 30.5649 56.4279 30.6601 56.3327C30.7553 56.2375 30.9085 56.2375 31.2149 56.2375H36.266C36.5724 56.2375 36.7256 56.2375 36.8208 56.3327C36.916 56.4279 36.916 56.5806 36.916 56.8861V63.2672C36.916 67.6336 32.1526 72 28.9771 72H7.93893C3.17555 72 3.11908e-10 67.6336 3.11908e-10 64.0611L5.89802e-06 59.5437C1.44169e-05 54.4261 2.64308e-05 47.2089 3.11908e-10 44.6107C-3.6341e-05 41.0382 3.17557 35.4809 7.93893 35.4809Z" fill="url(#paint0_linear_1_27)"/>
<path fill-rule="evenodd" clip-rule="evenodd" d="M34.856 35.4809H7.93893C3.17557 35.4809 -3.63403e-05 41.0382 3.119e-10 44.6107L5.89865e-06 59.5437L3.119e-10 64.0611C3.119e-10 67.6336 3.17555 72 7.93893 72H28.9771C32.1526 72 36.916 67.6336 36.916 63.2672V56.8861C36.916 56.5806 36.916 56.4279 36.8208 56.3327C36.7289 56.2407 36.5829 56.2376 36.2969 56.2375H31.184C30.898 56.2376 30.752 56.2407 30.6601 56.3327C30.5649 56.4279 30.5649 56.5805 30.5649 56.8859V63.2672C30.5649 64.8549 29.374 66.0458 27.7863 66.0458H9.52671C7.93893 66.0458 6.74806 65.2519 6.74809 62.8702C6.7481 61.5588 6.62775 56.6367 6.51959 52.2128C6.43131 48.6026 6.35115 45.3242 6.35114 44.6107C6.35112 43.0229 7.93893 41.0382 9.52671 41.0382H24.6846C25.3304 41.0382 25.6533 41.0382 25.7376 41.2354C25.8219 41.4327 25.5977 41.6672 25.1494 42.1362L25.1494 42.1362C22.8458 44.5459 17.4271 50.2065 15.8779 51.7557C13.8931 53.7404 14.29 56.1221 17.4656 56.1221H27.7668C27.2307 55.837 27.0333 55.085 27.493 54.5723C28.5949 53.3435 29.838 51.9573 31.0871 50.5649H27.7611C27.0977 50.5649 26.7659 50.5649 26.6828 50.3642C26.5997 50.1636 26.8354 49.9279 27.3069 49.4565L36.5191 40.2443C37.6975 39.0658 37.4765 36.1769 35.0097 35.5014L35.0097 35.5014C34.9738 35.4916 34.9559 35.4867 34.9343 35.4838C34.9128 35.4809 34.8939 35.4809 34.856 35.4809Z" fill="url(#paint1_linear_1_27)"/>
<path fill-rule="evenodd" clip-rule="evenodd" d="M34.856 35.4809H7.93893C3.17557 35.4809 -3.63403e-05 41.0382 3.119e-10 44.6107L5.89865e-06 59.5437L3.119e-10 64.0611C3.119e-10 67.6336 3.17555 72 7.93893 72H28.9771C32.1526 72 36.916 67.6336 36.916 63.2672V56.8861C36.916 56.5806 36.916 56.4279 36.8208 56.3327C36.7289 56.2407 36.5829 56.2376 36.2969 56.2375H31.184C30.898 56.2376 30.752 56.2407 30.6601 56.3327C30.5649 56.4279 30.5649 56.5805 30.5649 56.8859V63.2672C30.5649 64.8549 29.374 66.0458 27.7863 66.0458H9.52671C7.93893 66.0458 6.74806 65.2519 6.74809 62.8702C6.7481 61.5588 6.62775 56.6367 6.51959 52.2128C6.43131 48.6026 6.35115 45.3242 6.35114 44.6107C6.35112 43.0229 7.93893 41.0382 9.52671 41.0382H24.6846C25.3304 41.0382 25.6533 41.0382 25.7376 41.2354C25.8219 41.4327 25.5977 41.6672 25.1494 42.1362L25.1494 42.1362C22.8458 44.5459 17.4271 50.2065 15.8779 51.7557C13.8931 53.7404 14.29 56.1221 17.4656 56.1221H27.7668C27.2307 55.837 27.0333 55.085 27.493 54.5723C28.5949 53.3435 29.838 51.9573 31.0871 50.5649H27.7611C27.0977 50.5649 26.7659 50.5649 26.6828 50.3642C26.5997 50.1636 26.8354 49.9279 27.3069 49.4565L36.5191 40.2443C37.6975 39.0658 37.4765 36.1769 35.0097 35.5014L35.0097 35.5014C34.9738 35.4916 34.9559 35.4867 34.9343 35.4838C34.9128 35.4809 34.8939 35.4809 34.856 35.4809Z" fill="url(#paint2_linear_1_27)"/>
<path d="M26.6828 50.3643L26.2209 50.5556C26.3727 50.9221 26.7321 51.0061 26.9339 51.0348C27.1458 51.065 27.4247 51.0649 27.7262 51.0649L27.7611 51.0649H42.8702C45.1711 51.0649 46.5458 49.2114 46.5458 47.3893V29.1298C46.5458 28.0937 46.1572 27.2284 45.4983 26.5946C44.8467 25.9678 43.9559 25.5902 42.9735 25.4632C42.9597 25.4615 42.9332 25.4578 42.9034 25.4559C42.8765 25.4542 42.8541 25.4542 42.8407 25.4542L42.8378 25.4542H24.6107C23.5612 25.4542 22.7357 26.2278 22.2099 27.0165C21.6763 27.8169 21.332 28.8054 21.3321 29.5267L21.3321 34.7894C21.3321 34.8473 21.332 34.8952 21.3315 34.9369C21.2893 34.9375 21.2408 34.9375 21.1821 34.9375H16.2248C16.1691 34.9375 16.1231 34.9375 16.083 34.937C16.0813 34.8978 16.0798 34.8528 16.078 34.7984C16.0438 33.7341 15.9809 31.4143 15.9809 28.7328C15.9809 26.9874 16.5883 24.9124 17.8296 23.2838C19.0605 21.6689 20.9056 20.5 23.4198 20.5H43.6641C45.8661 20.5 47.822 21.6277 49.2411 23.249C50.6645 24.8752 51.5 26.9451 51.5 28.7328L51.5 33.4571L51.5 48.1832C51.5 50.0157 50.5846 51.8772 49.122 53.29C47.6615 54.7008 45.6975 55.6221 43.6641 55.6221H17.4656C15.9817 55.6221 15.3739 55.0779 15.2163 54.5421C15.0427 53.9517 15.2989 53.0418 16.2314 52.1093C17.7858 50.5549 23.21 44.8886 25.5108 42.4817L25.5348 42.4567C25.7382 42.2439 25.9273 42.0462 26.0499 41.8749C26.1678 41.7101 26.3508 41.3979 26.1974 41.0389C26.1974 41.0389 26.1974 41.0389 26.1974 41.0389L25.7376 41.2354M26.6828 50.3643L31.0697 56.6221C31.0683 56.6399 31.067 56.664 31.0662 56.6967C31.0659 56.7098 31.0656 56.7236 31.0654 56.7381C31.0513 56.7383 31.0378 56.7385 31.0249 56.7388C30.9733 56.7401 30.9431 56.7425 30.9249 56.7449C30.907 56.7473 30.9144 56.7481 30.9341 56.74C30.9577 56.7303 30.9871 56.7127 31.0136 56.6862C31.0346 56.6653 31.0499 56.6425 31.0603 56.6221H30.9495H30.5687C30.5649 56.6947 30.5649 56.7813 30.5649 56.8859V63.2672C30.5649 64.8549 29.374 66.0458 27.7863 66.0458H9.52671C7.93893 66.0458 6.74806 65.2519 6.74809 62.8702C6.7481 61.5588 6.62775 56.6367 6.51959 52.2128C6.43131 48.6026 6.35115 45.3242 6.35114 44.6107C6.35112 43.0229 7.93893 41.0382 9.52671 41.0382H24.6846C25.3304 41.0382 25.6533 41.0382 25.7376 41.2354M26.6828 50.3643L26.2209 50.5556C26.0688 50.1883 26.265 49.8741 26.3873 49.7114C26.5163 49.5398 26.7143 49.3419 26.9287 49.1275L26.9533 49.1029L36.1655 39.8907C36.6089 39.4474 36.8304 38.618 36.6437 37.7948C36.4638 37.001 35.9143 36.2675 34.8777 35.9837L34.8675 35.9809L34.856 35.9809H7.93893C5.76614 35.9809 3.91347 37.2482 2.58189 39.0078C1.24736 40.7713 0.499983 42.9502 0.5 44.6107L0.500006 59.5437L0.5 64.0611C0.5 65.7094 1.238 67.5778 2.55425 69.0351C3.86394 70.4851 5.71984 71.5 7.93893 71.5H28.9771C30.3711 71.5 32.2343 70.5153 33.7784 68.9229C35.3117 67.3417 36.416 65.2766 36.416 63.2672V56.8861C36.416 56.8279 36.416 56.7799 36.4155 56.7381L26.6828 50.3643ZM25.7376 41.2354C25.8219 41.4327 25.5978 41.6672 25.1494 42.1362C22.8458 44.5459 17.4271 50.2065 15.8779 51.7557C13.8931 53.7404 14.29 56.1221 17.4656 56.1221H30.1947L25.7376 41.2354ZM36.9122 56.6221C36.916 56.6947 36.916 56.7815 36.916 56.8861V63.2672C36.916 67.6336 32.1526 72 28.9771 72H7.93893C3.17555 72 0 67.6336 0 64.0611L5.89802e-06 59.5437L0 44.6107C-3.6341e-05 41.0382 3.17557 35.4809 7.93893 35.4809H15.1801L36.9122 56.6221Z" stroke="url(#paint3_linear_1_27)" stroke-linejoin="round"/>
<defs>
<linearGradient id="paint0_linear_1_27" x1="17.0625" y1="24.7125" x2="45.6625" y2="54.775" gradientUnits="userSpaceOnUse">
<stop stop-color="#4DF4FF"/>
<stop offset="0.5" stop-color="#3FAEFF"/>
<stop offset="1" stop-color="#34E3D9"/>
</linearGradient>
<linearGradient id="paint1_linear_1_27" x1="-0.65" y1="47.1375" x2="26.975" y2="55.9125" gradientUnits="userSpaceOnUse">
<stop stop-color="#597EFF"/>
<stop offset="0.536458" stop-color="#2051FF"/>
<stop offset="1" stop-color="#2051FF" stop-opacity="0"/>
</linearGradient>
<linearGradient id="paint2_linear_1_27" x1="30.7125" y1="72" x2="30.3875" y2="56.4" gradientUnits="userSpaceOnUse">
<stop stop-color="#A259FF"/>
<stop offset="0.536458" stop-color="#6A35FF"/>
<stop offset="1" stop-color="#2051FF" stop-opacity="0"/>
</linearGradient>
<linearGradient id="paint3_linear_1_27" x1="48.1" y1="21.7875" x2="1.4625" y2="70.5375" gradientUnits="userSpaceOnUse">
<stop stop-color="white" stop-opacity="0.71"/>
<stop offset="0.197917" stop-color="white" stop-opacity="0.19"/>
<stop offset="0.541667" stop-color="white" stop-opacity="0.12"/>
<stop offset="0.932292" stop-color="white" stop-opacity="0.54"/>
</linearGradient>
</defs>
</svg>
